<svg width="36px" height="49px" viewBox="0 0 36 49" version="1.1" xmlns="http://www.w3.org/2000/svg"
     xmlns:xlink="http://www.w3.org/1999/xlink" class="image" alt="Channel 4">
    <g id="Logos/Channel-4" stroke="none" stroke-width="1" fill="none" fill-rule="evenodd">
        <path d="M22.1957126,9.11840559e-09 L21.6207698,0.724417272 L21.6207698,7.01703936 L25.2109303,2.49215599 L22.1957126,9.11840559e-09 Z M15.2458181,8.75782045 L15.2458181,26.1564532 L19.1259791,26.1564532 L19.1259791,3.86814729 L15.2458181,8.75782045 Z M21.6207698,11.0624195 L21.6207698,42.2811899 L25.5020548,42.2811899 L25.5020548,6.17159916 L21.6207698,11.0624195 Z M1.44101,26.1564532 L6.43396346,26.1564532 L12.7499033,18.1970404 L12.7499033,11.9044183 L1.44101,26.1564532 Z M27.9962834,32.6635901 L34.6494332,32.6635901 L34.6494332,28.701951 L27.9962834,28.701951 L27.9962834,32.6635901 Z M0,32.6635901 L19.1259791,32.6635901 L19.1259791,28.7030981 L0,28.7030981 L0,32.6635901 Z M15.2458181,48.7883267 L19.1259791,48.7883267 L19.1259791,35.210235 L15.2458181,35.210235 L15.2458181,48.7883267 Z M21.6207698,48.7883267 L31.3228584,48.7883267 L31.3228584,44.8272614 L21.6207698,44.8272614 L21.6207698,48.7883267 Z M8.86974242,48.7883267 L12.7510274,48.7883267 L12.7510274,44.8272614 L8.86974242,44.8272614 L8.86974242,48.7883267 Z"
              id="digitChannel4" fill="#FFFFFF" fill-rule="nonzero"></path>
    </g>
</svg>
