<svg width="167px" height="48px" viewBox="0 0 167 48" version="1.1" xmlns="http://www.w3.org/2000/svg"
     xmlns:xlink="http://www.w3.org/1999/xlink" class="image" alt="Film4">
    <g id="Logos/Film-4" stroke="none" stroke-width="1" fill="none" fill-rule="evenodd">
        <path d="M138.834094,0.316304824 L141.725708,2.70629883 L138.238647,7.08410645 L138.238647,1.04858398 L138.834094,0.316304824 Z M130.182861,10.9619141 L135.7211,4.1583252 L135.7211,10.2052002 L135.128052,10.9619141 L130.182861,10.9619141 Z M138.373779,10.9328613 L142.034668,6.42041016 L142.034668,10.9328613 L138.373779,10.9328613 Z M118.237427,25.6894531 L123.170213,19.7392578 L123.170213,25.6894531 L118.237427,25.6894531 Z M144.591064,31.9954834 L144.591064,28.2038574 L151.140381,28.2038574 L151.140381,31.9954834 L144.591064,31.9954834 Z M116.827515,32.0220947 L116.827515,28.2114258 L123.098389,28.2114258 L123.098389,32.0220947 L116.827515,32.0220947 Z M131.919189,47.7883267 L131.919189,28.2076416 L135.778442,28.2076416 L135.778442,47.7883267 L131.919189,47.7883267 Z M138.248779,41.3485107 L138.248779,28.2189941 L142.059326,28.2189941 L142.059326,41.3485107 L138.248779,41.3485107 Z M138.231934,47.7883267 L138.231934,43.8602295 L147.869385,43.8602295 L147.869385,47.7883267 L138.231934,47.7883267 Z M125.648193,47.7986877 L125.648193,43.8564453 L129.459717,43.8564453 L129.459717,47.7986877 L125.648193,47.7986877 Z M125.648193,13.4177246 L135.778442,13.4177246 L135.778442,17.0981445 L129.459717,17.0981445 L129.459717,20.4852295 L135.7211,20.4852295 L135.7211,24.0574963 L129.459717,24.0574963 L129.459717,32.0220947 L125.648193,32.0220947 L125.648193,13.4177246 Z M138.231934,13.4177246 L142.059326,13.4177246 L142.059326,25.6894531 L138.248779,25.6894531 L138.231934,13.4177246 Z M144.591064,13.4177246 L148.427856,13.4177246 L148.427856,22.4420166 L151.140381,22.4420166 L151.140381,25.6894531 L144.591064,25.6894531 L144.591064,13.4177246 Z M153.001953,13.4177246 L157.244385,13.4177246 L159.833374,18.5404053 L162.449097,13.4177246 L166.664795,13.4177246 L166.664795,25.6894531 L163.122925,25.6894531 L163.122925,18.5404053 L160.820679,23.1053467 L158.866333,23.1053467 L156.439209,18.5404053 L156.439209,25.6894531 L153.001953,25.6894531 L153.001953,13.4177246 Z M0.35546875,5.32617187 L18.9116211,5.32617187 L18.9116211,10.8400879 L6.98510742,10.8400879 L6.98510742,23.041748 L16.4343262,23.041748 L16.4343262,28.7365723 L6.98510742,28.7365723 L6.98510742,47.7236328 L0.35546875,47.7236328 L0.35546875,5.32617187 Z M23.3637695,5.32617187 L30.032959,5.32617187 L30.032959,47.7236328 L23.3637695,47.7236328 L23.3637695,5.32617187 Z M35.4311523,5.32617187 L41.9824219,5.32617187 L41.9824219,41.9794922 L50.2307129,41.9794922 L50.2307129,47.7236328 L35.4311523,47.7236328 L35.4311523,5.32617187 Z M54.7661133,5.32617187 L63.0930176,5.32617187 L68.5032959,26.5249023 L74.3664551,5.32617187 L82.2404785,5.32617187 L82.2404785,47.7236328 L76.3105469,47.7236328 L76.3105469,18.2709961 L70.7919922,37.4821777 L66.2443848,37.4821777 L60.6120605,18.2709961 L60.6120605,47.7236328 L54.7661133,47.7236328 L54.7661133,5.32617187 Z M86.7956543,37.4677734 L86.7956543,32.4758301 L97.324707,5.32617187 L105.215332,5.32617187 L105.215332,32.0220947 L109.03418,32.0220947 L109.03418,37.4677734 L105.215332,37.4677734 L105.215332,47.7236328 L99.4304199,47.7236328 L99.4304199,37.4677734 L86.7956543,37.4677734 Z M99.3730469,14.0939941 L92.5803223,32.0220947 L99.3730469,32.0220947 L99.3730469,14.0939941 Z"
              id="Shape" fill="#FFFFFF" fill-rule="nonzero"></path>
    </g>
</svg>
