<svg width="88px" height="35px" viewBox="0 0 88 35" version="1.1" xmlns="http://www.w3.org/2000/svg"
     xmlns:xlink="http://www.w3.org/1999/xlink" class="image" alt="Love Productions">
    <g id="Logos/Love-Productions" stroke="none" stroke-width="1" fill="none" fill-rule="evenodd">
        <path d="M0.149333193,4.21878106 C0.149333193,4.21878106 -0.540969126,2.30948454 1.04674692,1.93993136 C1.04674692,1.93993136 3.3249724,0.338472637 6.43164351,0.584779833 C6.43164351,0.584779833 7.67431195,0.523249228 8.36482138,0.0921654403 C8.36482138,0.0921654403 9.67645792,-0.400633729 9.60748982,0.892802412 C9.60748982,0.892802412 9.53831461,2.98687552 9.95253743,3.17165212 C9.95253743,3.17165212 9.81460123,4.28031167 9.95253743,4.89635682 C9.95253743,4.89635682 10.2977921,5.88177038 9.95253743,7.42151372 C9.95253743,7.42151372 10.0217126,9.20774903 9.46934651,9.08450305 C9.46934651,9.08450305 10.712015,10.6244312 9.40037841,12.2874205 C9.40037841,12.2874205 9.67645792,13.5191412 9.3312032,13.7039178 C9.3312032,13.7039178 8.84801229,14.196717 9.1240918,14.6278008 C9.1240918,14.6278008 9.1240918,15.6749297 8.84801229,15.7364603 C8.84801229,15.7364603 8.8825999,17.6766146 8.57193279,18.0154948 C8.57193279,18.0154948 8.67548849,19.4013193 8.43378948,19.6167688 C8.43378948,19.6167688 8.33023377,20.8486743 8.50275758,21.2490852 C8.50275758,21.2490852 8.64090088,22.2344987 8.43378948,23.0351357 C8.43378948,23.0351357 8.36482138,24.6674521 8.951568,25.0676782 L9.74542602,25.745254 L18.4786927,25.745254 C18.4786927,25.745254 19.1000269,25.7143963 19.3071384,28.5784335 C19.3071384,28.5784335 19.3071384,30.734222 19.5142498,31.5965743 C19.5142498,31.5965743 19.8595045,34.1525889 16.7872139,33.9678123 C16.7872139,33.9678123 14.8542431,33.9678123 14.8542431,34.1834466 C14.8542431,34.1834466 13.1973518,34.2758349 13.024828,33.7830357 C13.024828,33.7830357 12.3343186,33.5367285 12.0582391,33.8445663 C12.0582391,33.8445663 10.8501583,33.99867 10.9880945,33.6597897 C10.9880945,33.6597897 10.091095,33.3519519 9.76303049,33.752178 C9.76303049,33.752178 9.26223511,34.0602006 7.84704286,33.5058708 C7.84704286,33.5058708 8.01956666,33.2595636 4.67119654,33.0439293 L2.56570198,32.7976222 C2.56570198,32.7976222 1.39200164,32.6435185 1.59911304,31.0113868 L1.63370065,26.2071955 C1.63370065,26.2071955 1.63370065,24.3285719 1.42658924,24.2670412 C1.42658924,24.2670412 1.18489023,23.6818538 1.49555734,23.4664043 C1.80622445,23.25077 1.46096973,21.803415 1.46096973,21.803415 C1.46096973,21.803415 1.01236643,15.890564 1.28844593,15.4592955 C1.28844593,15.4592955 1.18489023,13.7039178 0.874223118,13.6732449 C0.874223118,13.6732449 0.701699316,12.626116 0.977778822,12.1950322 L0.977778822,10.6859618 C0.977778822,10.6859618 1.04674692,10.1007743 0.701699316,10.0701014 C0.701699316,10.0701014 0.252888897,9.48491392 0.494587909,8.77666524 C0.494587909,8.77666524 0.598143613,6.95957224 0.183920798,6.80565334 C0.183920798,6.80565334 -0.264889621,6.03568929 0.252888897,5.41982891 L0.149333193,4.21878106"
              id="Fill-1" fill="#FFFFFF"></path>
        <path d="M29.1025256,2.6752418 C29.1025256,2.6752418 30.0308374,2.49062134 30.3918475,3.3214134 C30.3918475,3.3214134 30.598139,3.50603385 32.5579083,3.78296454 C32.5579083,3.78296454 33.3830744,4.05989522 34.362959,4.75222193 C34.362959,4.75222193 35.188125,5.21377307 35.9617182,5.07530773 C35.9617287,5.07532024 36.1938043,5.35223789 36.5548063,5.32916086 C36.5548063,5.32916086 38.4114298,7.12921031 38.77244,7.79845946 C38.7724466,7.79846189 39.2108267,7.96001956 41.5058024,10.2446805 L43.6460768,17.514111 C43.6460768,17.514111 43.6460768,17.9064294 43.4655717,17.9756621 C43.4655706,17.9757289 43.4397748,19.4552242 42.9756294,20.0653811 C42.9756294,20.0653811 42.6404057,20.5834261 42.8209108,21.7142264 C42.8209108,21.7142264 42.305182,23.5373534 41.892599,23.9989045 C41.892599,23.9989045 41.480016,24.7835414 41.6347346,25.8451091 C41.6347346,25.8451091 41.8668126,26.7220562 40.7837821,26.9528318 L38.540362,28.6836486 C38.5403562,28.6837257 38.4114118,30.391381 37.6120502,30.0913796 C37.6120502,30.0913796 35.9359317,30.3913878 35.9359317,30.5298531 C35.9359317,30.5298531 35.0591928,30.7606287 34.7239691,30.6683185 C34.7239691,30.6683185 33.9761624,30.5760083 33.3572879,31.1067921 C33.3572879,31.1067921 29.3088171,31.9145066 28.7930883,31.1067921 C28.7930883,31.1067921 28.2515731,30.5298531 27.7616308,30.7606287 C27.7616133,30.7606124 26.6012312,29.6759823 25.2861327,29.5144406 C25.2861327,29.5144406 24.4867531,29.2836651 24.2288888,28.7990364 C24.2288888,28.7990364 23.8936651,28.3144077 23.5326549,28.3144077 L22.6043431,27.1836074 C22.6043431,27.1836074 20.360923,25.0835497 20.0256993,25.0373946 C20.025697,25.0373591 19.974109,24.2527592 19.2005333,24.3219903 C19.2005333,24.3219903 18.7363774,23.2604227 18.3753673,23.1681125 C18.3753673,23.1681125 17.7564927,22.5450184 17.6791334,20.952667 C17.6791334,20.952667 17.8338521,18.0448948 17.2923369,17.6064212 C17.2923369,17.6064212 16.5445301,14.5832612 17.7822792,13.5447712 C17.7822792,13.5447712 18.5042995,12.9216771 18.478513,12.3678158 C18.478513,12.3678158 18.6848045,11.8370319 18.9426689,11.7908768 C18.9426689,11.7908768 18.7879503,11.2139379 19.2778926,10.7754643 C19.2778926,10.7754643 19.5675259,10.3831458 19.4870722,10.0139049 C19.4870722,10.0139049 21.3665941,7.98307992 21.3923805,7.45229611 C21.3924151,7.4522836 23.6873736,6.62149658 23.6873736,5.6291691 L29.1025256,2.6752418 Z M35.0979707,16.8402349 L36.0950358,16.3201928 C36.147513,15.8001506 35.7801732,15.9358138 35.7801732,15.9358138 C35.491549,16.3201928 35.0979707,16.2071401 35.0979707,16.2071401 L34.2583369,15.9358138 C33.2087946,16.1619191 34.5465412,17.2020033 34.5465412,17.2020033 C34.3624515,16.9532875 35.0979707,16.8402349 35.0979707,16.8402349 C35.0717327,16.0941043 35.6489543,16.5609286 35.6489804,16.5609497 C35.6489804,16.5609497 35.0717321,16.0940875 35.0979707,16.8402349 Z M36.5294455,9.576089 C36.9386563,11.2855264 38.2941671,10.1615128 38.2941671,10.1615128 C38.856832,8.615994 38.2941671,9.01408217 38.2941671,9.01408217 C38.2941671,9.01408217 37.833805,9.43558729 37.5524725,8.89699742 C37.2711401,8.35840754 36.8363536,8.59257705 36.8363536,8.59257705 C36.5550212,9.03749912 35.4808428,7.79640071 35.4808428,7.79640071 C34.4066645,7.21097693 34.4578158,9.01408217 34.4578158,9.01408217 C35.0460431,10.3488183 35.7109939,9.41221264 35.7110239,9.41217035 C35.7110239,9.41217034 35.0460564,10.3488484 34.4578158,9.01408217 C34.4578158,9.01408217 34.4066645,7.21097693 35.4808428,7.79640071 L36.5294455,9.576089 Z M38.3906559,14.529468 C38.0846201,13.8727954 38.6966917,14.1996724 38.6966917,14.1996724 C38.6966917,14.1996724 38.9893198,14.5781104 39.2287428,14.1889711 C39.4681658,13.7998318 38.4838712,12.8026622 37.7922048,13.5079773 C37.1005384,14.2132923 37.9252176,15.1374982 37.9252176,15.1374982 C38.2710508,15.2834255 38.3906559,14.9186073 38.3906559,14.9186073 C38.8560837,14.6997214 38.3906769,14.5294757 38.3906559,14.529468 Z"
              id="Combined-Shape" fill="#FFFFFF"></path>
        <path d="M42.8006515,7.68705064 C42.8006515,7.68705064 41.819484,5.93339413 44.4015037,5.51809815 C44.4015037,5.51809815 47.448287,5.42581015 47.6032081,5.19509016 C47.7581293,4.96437017 48.9458584,4.96437017 49.2557008,5.97953813 C49.2557008,5.97953813 49.2557008,6.53326611 49.6688239,6.8101301 C49.6688239,6.8101301 49.9270259,7.31789866 49.6688239,7.68705064 C49.6688239,7.68705064 50.9598338,9.15184572 51.2180358,9.08835158 C51.2180358,9.08835158 51.2696761,10.73237 51.9926417,11.1476659 C51.9926417,11.1476659 53.0254496,13.6855858 53.6967747,14.4700338 C53.6967747,14.4700338 55.7107501,17.4693937 52.2508436,17.1925297 C52.2508436,17.1925297 50.9081934,16.905514 50.856553,17.2106182 C50.856553,17.2106182 51.6311589,19.1767216 52.9221688,20.4687536 C52.9221688,20.4687536 53.2320111,21.4377776 53.9033363,21.4839216 C53.9033363,21.4839216 58.1378486,23.4219695 56.9501195,20.9763376 C56.9501195,20.9763376 56.4407387,19.6381616 57.1601927,18.9921456 C57.1601927,18.9921456 57.7247254,16.576415 58.0345678,16.5383924 C58.0345678,16.5383924 57.8796466,17.7462577 58.8608141,17.1925297 C58.8608141,17.1925297 59.4804989,16.0389298 60.7715087,18.2999857 C60.7715087,18.2999857 61.2879127,18.1615537 61.6493954,18.5307057 C61.6493954,18.5307057 61.6235752,18.0692657 61.4944742,18.0000497 C61.4944742,18.0000497 61.3137329,17.5616817 61.6493954,17.3078897 C61.6493954,17.3078897 62.5014619,16.8003057 61.7784964,16.4772977 C61.7784964,16.4772977 61.2362723,16.1081458 61.6235752,15.9235698 C61.6235752,15.9235698 62.0108782,15.7851378 61.6493954,15.4852018 C61.6493954,15.4852018 61.2104521,15.0006898 61.9592378,14.7930418 C61.9592378,14.7930418 64.1281344,14.5623218 62.5531023,14.2393138 C62.5531023,14.2393138 61.3395531,13.8470898 61.0555309,14.1700978 C61.0555309,14.1700978 60.7715087,14.4931058 61.2879127,14.8391858 C61.2879127,14.8391858 61.2879127,17.1233137 60.1776442,16.1312178 C60.1776442,16.1312178 59.4288585,15.3467698 58.9640949,16.1773618 C58.9640949,16.1773618 58.7317131,16.3619377 58.447691,15.8082098 C58.447691,15.8082098 58.1120284,14.9776178 58.8608141,15.5313458 C58.8608141,15.5313458 58.7058929,15.0237618 59.0415555,14.8161138 C59.0415555,14.8161138 59.6095998,13.9855218 59.8678018,14.5623218 C59.8678018,14.5623218 60.022723,14.9084018 60.1776442,14.5392498 C60.1776442,14.5392498 60.1260038,14.1931698 60.5133067,14.1931698 C60.5133067,14.1931698 59.893622,13.3395059 59.3255777,13.3856499 C59.3255777,13.3856499 58.2153092,13.3395059 58.7317131,11.5860339 C58.7317131,11.5860339 59.1448363,9.532626 59.4030383,9.394194 C59.4030383,9.394194 59.4546787,6.23333012 60.3325654,6.02568213 C60.3325654,6.02568213 60.3325654,4.71057818 60.0743634,4.68750618 C60.0743634,4.68750618 60.8489693,4.1568502 60.9264299,3.48776222 C60.9264299,3.48776222 61.6084962,3.39547423 63.1265173,4.47985819 C63.1265173,4.47985819 65.4191442,5.28737816 66.4003117,5.91032213 C66.4003117,5.91032213 67.4589398,5.93339413 66.8908955,7.01777809 L65.0318413,13.5702258 L65.0318413,13.8932338 L64.1797747,14.4700338 C64.1797747,14.4700338 64.3863363,17.0540977 63.430989,18.2307697 C63.430989,18.2307697 63.1469669,18.5307057 62.9145851,18.0923377 C62.9145851,18.0923377 62.7338437,17.6539697 62.5531023,18.1154097 C62.5531023,18.1154097 62.3723609,18.4614897 62.7854841,18.4845617 C62.7854841,18.4845617 63.2502476,18.2999857 63.1986073,18.8075697 C63.1986073,18.8075697 63.1986073,19.6150896 62.7338437,20.3995376 C62.7338437,20.3995376 62.7338437,21.8104365 62.3207205,22.212443 C62.3207205,22.212443 62.0625186,22.7067375 62.0108782,23.2604655 C62.0108782,23.2604655 60.5649471,26.1444654 60.6940481,26.6059054 C60.6940481,26.6059054 59.9452624,27.6672173 59.893622,29.0515373 C59.893622,29.0515373 59.6612402,29.6514092 59.4546787,29.8590572 C59.4546787,29.8590572 58.8608141,30.9895852 58.576792,31.7278892 C58.576792,31.7278892 58.31859,33.0199211 55.6591097,33.0429931 C55.6591097,33.0429931 50.340149,33.5275051 50.1335875,31.5433132 C50.1335875,31.5433132 49.7721047,28.7977453 49.1782402,28.4516653 C49.1782402,28.4516653 48.894218,28.0825133 48.9458584,27.3442093 C48.9458584,27.3442093 48.8683978,26.3751854 48.506915,26.2828974 C48.506915,26.2828974 47.9905111,25.1523694 48.1712525,24.8524334 C48.1712525,24.8524334 47.9646909,23.7449775 47.6548485,23.6526895 C47.6548485,23.6526895 47.9130505,22.1299375 47.190085,21.7377135 C47.190085,21.7377135 46.8286022,21.3224176 47.0351638,20.6994736 L45.4084914,17.2848177 C45.4084914,17.2848177 44.8146268,16.2696497 45.0728288,15.6697778 C45.0728288,15.6697778 44.9953682,13.9393778 44.1949421,13.6394418 C44.1949421,13.6394418 43.652718,12.8088499 43.9109199,12.1859059 C43.9109199,12.1859059 43.9367401,11.3783859 43.5752574,11.2399539 C43.5752574,11.2399539 43.394516,11.0092339 43.394516,10.547794 C43.394516,10.547794 43.136314,7.68705064 42.8006515,7.68705064"
              id="Fill-13" fill="#FFFFFF"></path>
        <path d="M68.7765881,5.78540425 C68.7766183,5.78538938 69.4465754,5.45617071 69.7557901,5.78299427 C69.7557901,5.78299427 70.5288444,5.49120079 70.7865291,5.63820983 C70.786578,5.63819108 71.8688202,5.22295945 72.5387854,5.59686933 C72.5387854,5.59686933 73.1572288,5.8317501 73.5179875,5.69271255 C73.5179875,5.69271255 74.2910417,5.50732914 75.7340764,5.78540425 C75.7340927,5.78540774 76.8163674,6.01712757 78.8262934,5.22925404 C78.8263779,5.22924776 80.6987377,5.09021021 80.870455,4.81214138 C80.870455,4.81214138 82.0386946,5.15194916 82.6915647,4.59579895 C82.6915647,4.59579895 85.0622644,4.50310725 85.4401333,4.78118236 C85.4401674,4.78117681 86.1960633,4.65831326 85.5776339,6.43443154 C85.5776339,6.43443154 85.3714861,7.71635777 85.9899295,8.28808019 C85.9899295,8.28808019 86.3677984,9.50845913 86.2647245,10.0955684 C86.2647245,10.0955684 86.5739462,11.2386424 85.8868556,10.9297937 C85.8868556,10.9297937 85.4401333,10.7751839 84.9247638,11.2078688 C84.9247638,11.2078688 80.9393084,11.2386424 80.2520116,11.5476766 C80.25198,11.5476728 78.1563094,11.3005679 77.6751641,12.2892102 C77.6751641,12.2892102 76.6102045,15.1626529 79.3587732,14.7918861 C79.3587732,14.7918861 83.1038603,14.2047769 83.2755814,13.8340101 C83.2755814,13.8340101 86.1272239,13.7105447 86.505299,14.0503525 C86.505299,14.0503525 87.1923896,15.3170773 86.9175946,17.8507123 C86.9175896,17.8507527 86.8068972,18.7466835 86.9825312,19.3337795 C86.9825312,19.3337795 86.6770201,19.9003112 82.9663597,20.1422365 C82.9663374,20.1422374 81.4888888,20.1989675 80.217791,20.693196 C80.217791,20.693196 77.125574,20.7858877 76.8849995,21.2493462 C76.8849703,21.2493922 74.944549,24.3081751 77.4265498,24.6789391 C77.4265498,24.6789391 79.7366421,23.8756729 80.6987339,24.1227889 C80.6987339,24.1227889 82.8632858,23.9683646 83.1380808,23.6285568 C83.1380808,23.6285568 84.1345993,23.1958719 84.9591905,23.5975978 C84.9591905,23.5975978 86.6770201,23.9993236 87.1237424,23.6593304 C87.1237424,23.6593304 88.3262025,23.1650983 87.9139069,26.8108483 C87.9139085,26.8109269 88.0169653,32.0325414 85.9555028,31.8781182 C85.9555028,31.8781182 84.2032465,32.0325426 84.1001726,32.2796587 C84.1001726,32.2796587 82.931933,32.5577338 82.7257852,32.2796587 C82.7257852,32.2796587 82.1761952,32.0942753 81.1454562,32.4033094 L78.156313,32.5886928 C78.1562773,32.5887151 77.3659268,33.0831054 76.6788517,32.8667679 C76.6788517,32.8667679 75.0983165,32.5269601 74.6173737,32.7123435 C74.6173737,32.7123435 70.185196,32.7431172 69.7384737,32.1252343 C69.738409,32.1252854 68.4077766,33.1757735 67.8705685,32.0015836 C67.8705685,32.0015836 67.5397012,28.9737164 67.3335534,28.6646823 C67.3335534,28.6646823 67.1010187,27.0889234 67.0626752,25.3896991 C67.0626752,25.3896991 67.2991268,24.1227889 66.9212578,23.9374055 C66.9212578,23.9374055 66.5089622,23.3504817 66.9212578,22.8251051 C66.9212578,22.8251051 67.0700966,21.620113 66.7379924,21.5274213 C66.7379924,21.5274213 66.7231498,19.9826214 67.0626752,19.6735873 C67.0626752,19.6735873 67.5739218,16.9547543 67.2991268,16.5839875 L67.9862174,11.8567107 C67.9862174,11.8567107 68.1581446,8.85961722 67.9519968,8.28808019 C67.9519968,8.28808019 67.4881643,5.69271255 68.7765881,5.78540425 Z M82.5778378,7.46121061 C82.0144266,7.50413547 82.2960266,7.89710449 82.2960266,7.89710449 C82.3471486,7.99803849 82.2256849,8.30568498 82.2256794,8.30569887 C81.9968926,8.96878918 82.648185,8.75021364 82.648185,8.75021364 C83.5635227,9.01961044 83.3700446,8.13655373 83.3700358,8.13651386 C83.3875698,7.73240952 83.8276094,8.30569887 83.8276094,8.30569887 C84.1444886,8.08586611 83.5988226,7.68750904 83.5988226,7.68750904 C83.8276094,7.01400182 83.2819434,7.29831167 83.2819434,7.29831167 C83.1235074,7.56770847 82.5778625,7.46121542 82.5778378,7.46121061 Z M80.0400668,7.8204332 L80.1421636,8.98312074 C80.1082674,9.58771826 81.1802836,9.23109874 81.1802836,9.23109874 C81.6056187,9.37062124 81.4355255,8.62650121 81.4355255,8.62650121 C81.1631313,8.51804572 81.0099861,7.73969617 81.0099861,7.73969617 C80.8229448,7.47292914 80.6356994,7.63440319 80.6356994,7.63440319 C80.6526474,7.94451521 80.0400668,7.8204332 80.0400668,7.8204332 Z"
              id="Combined-Shape" fill="#FFFFFF"></path>
    </g>
</svg>
