<svg width="71px" height="40px" viewBox="0 0 71 40" version="1.1" xmlns="http://www.w3.org/2000/svg"
     xmlns:xlink="http://www.w3.org/1999/xlink" class="image" alt="Museums Sheffield">
    <g id="Logos/MuseumSheffield-Small" stroke="none" stroke-width="1" fill="none" fill-rule="evenodd">
        <path d="M31.9851329,0.502335336 C32.2872032,0.502335336 33.2585369,0.563966853 33.7442037,0.563966853 C36.8402987,0.563966853 37.8714954,0.380581645 38.5392561,0.380581645 C38.8435806,0.380581645 39.1459013,0.718171425 39.1459013,1.14556713 C39.1459013,1.51107976 38.8435806,1.94149415 38.5392561,1.94149415 L34.4720779,1.94149415 L34.4720779,38.1969259 L38.5392561,38.1969259 C38.8435806,38.1969259 39.1459013,38.6275918 39.1459013,38.9938591 C39.1459013,39.4197455 38.8435806,39.7598508 38.5392561,39.7598508 C37.8714954,39.7598508 36.7188194,39.5742016 33.2585369,39.5742016 L29.3749553,39.5742016 C25.8553108,39.5742016 24.8231121,39.7598508 24.0944866,39.7598508 C23.7909135,39.7598508 23.5494577,39.4197455 23.5494577,38.9938591 C23.5494577,38.6275918 23.7909135,38.1969259 24.0944866,38.1969259 L28.1609134,38.1969259 L28.1609134,12.2674146 L18.8748828,39.2529631 C18.7529025,39.617721 18.69329,39.7394747 18.2081241,39.7394747 C17.8421832,39.7394747 17.7219563,39.5583535 17.6002265,39.2529631 L6.9513731,11.8397674 L6.9513731,38.1969259 L11.4699034,38.1969259 C11.7138639,38.1969259 12.0164351,38.6275918 12.0164351,38.9938591 C12.0164351,39.4197455 11.7138639,39.7598508 11.4699034,39.7598508 C10.7417788,39.7598508 9.64946667,39.5742016 6.1283193,39.5742016 L5.88586158,39.5742016 C2.426581,39.5742016 1.27490682,39.7598508 0.546782239,39.7598508 C0.303322625,39.7598508 0,39.4197455 0,38.9938591 C0,38.6275918 0.303322625,38.1969259 0.546782239,38.1969259 L5.093115,38.1969259 L5.093115,1.94149415 L0.546782239,1.94149415 C0.303322625,1.94149415 0,1.51107976 0,1.14556713 C0,0.718171425 0.303322625,0.380581645 0.546782239,0.380581645 C1.27490682,0.380581645 2.426581,0.563966853 5.88586158,0.563966853 C6.25055005,0.563966853 7.52595782,0.502335336 7.89089677,0.502335336 C9.28603056,0.502335336 9.40801084,0.808228907 10.1361354,2.69717202 L20.5733392,29.3783362 L29.7383914,2.69717202 C30.4069034,0.808228907 30.5882458,0.502335336 31.9851329,0.502335336 Z M46.728466,27.2775819 C46.728466,28.985907 45.3929447,30.4482091 43.6318701,30.4482091 C41.9329127,30.4482091 40.5375285,28.985907 40.5375285,27.2775819 C40.5375285,25.5710178 41.9329127,24.1698441 43.6318701,24.1698441 C45.3929447,24.1698441 46.728466,25.5710178 46.728466,27.2775819 Z M46.728466,14.8438636 C46.728466,16.5491699 45.3929447,17.9523561 43.6318701,17.9523561 C41.9329127,17.9523561 40.5375285,16.5491699 40.5375285,14.8438636 C40.5375285,13.0761711 41.9329127,11.734868 43.6318701,11.734868 C45.3929447,11.734868 46.728466,13.0761711 46.728466,14.8438636 Z M70.5263927,32.094651 C70.3007167,37.9846116 64.8276344,40.1203323 60.8350971,39.9948053 C56.3779327,39.8519208 52.4071865,37.4769691 52.5166432,34.6233041 C52.5877774,32.7401468 53.75448,31.8662371 55.4163674,31.9180578 C56.813505,31.9630866 57.9043142,33.030947 57.8564739,34.3070967 C57.809886,35.5213634 56.6426825,36.4553953 55.5714101,36.6048203 C56.3962172,37.6638761 57.7630475,38.4990461 60.6893219,38.5908645 C63.7488478,38.6897265 66.5260908,37.4384809 66.6400559,34.4623075 C66.7134445,32.5197827 65.3030318,31.0773536 62.4098199,30.133511 L58.8598682,28.926791 C53.7299337,27.2436217 50.9742313,24.4206467 51.1362873,20.170336 C51.2189433,17.9838007 52.9036237,15.7280872 54.7641361,14.0831546 C52.6233446,12.6178338 51.5002243,10.6360661 51.604421,7.90440632 C51.8288447,2.01343951 57.3695547,-0.121023437 61.3600882,0.00525828393 C65.7501259,0.145375651 69.7288872,2.33845143 69.6199315,5.1936258 C69.5487972,7.07577686 68.3763338,8.13282027 66.7129435,8.07898703 C65.3173088,8.03546763 64.2249967,6.96685259 64.2738389,5.69095441 C64.3201764,4.47719085 65.4876303,3.54139802 66.625779,3.39549484 C65.7340956,2.33417496 64.3677662,1.50001124 61.4402395,1.40693507 C58.4478403,1.3103371 55.6032201,2.55856399 55.4902569,5.53373115 C55.4133617,7.53788746 56.8257781,8.92019435 59.7197415,9.86353389 L63.2694428,11.0712601 C68.4657526,12.7576996 71.155831,15.5769013 70.9930237,19.829476 C70.9073619,22.074121 69.2264386,24.270467 67.3651748,25.9136387 C69.5728426,27.3839906 70.6275838,29.4231134 70.5263927,32.094651 Z M54.4936254,17.6630653 C54.4017019,20.0903408 57.0018605,21.7536371 60.5518123,22.9608602 L63.7057665,24.096641 C64.6245009,24.4281934 65.4786133,24.7602489 66.1954666,25.1481501 C66.9551508,24.4432868 67.5936061,23.4282535 67.6341827,22.3352374 C67.7241024,19.968084 65.1239438,18.3042846 61.6448758,17.0381972 L58.4237949,15.9021648 C57.5045596,15.5696061 56.651449,15.2378022 55.9333434,14.8504041 C55.1761639,15.5567767 54.5362058,16.5687914 54.4936254,17.6630653 Z"
              id="Shape" fill="#FFFFFE"></path>
    </g>
</svg>
