<svg width="123px" height="48px" viewBox="0 0 123 48" version="1.1" xmlns="http://www.w3.org/2000/svg"
     xmlns:xlink="http://www.w3.org/1999/xlink" class="image" alt="Science Museum">
    <g id="Logos/Science-Museum" stroke="none" stroke-width="1" fill="none" fill-rule="evenodd">
        <path d="M38.1857683,40.2555911 L38.1857683,26.3003195 L42.6007557,26.3003195 L42.6007557,38.798722 C42.6007557,45.0095847 39.7348866,47.9233227 34.7777078,47.9233227 C29.820529,47.9233227 26.9546599,45.086262 26.9546599,38.798722 L26.9546599,26.3003195 L31.3696474,26.3003195 L31.3696474,40.2555911 C31.3696474,42.7859425 32.686398,44.1661342 34.7777078,44.1661342 C36.8690176,44.1661342 38.1857683,42.7859425 38.1857683,40.2555911 Z M13.0125945,34.658147 L16.4206549,26.3003195 L21.9974811,26.3003195 L21.9974811,47.6932907 L16.9628463,47.6932907 L16.9628463,37.571885 L16.2657431,40.3322684 L13.5547859,47.6932907 L9.91435768,47.6932907 L7.2034005,40.3322684 L6.50629723,37.571885 L6.50629723,47.6932907 L1.39420655,47.6932907 L1.39420655,26.3003195 L6.97103275,26.3003195 L10.4565491,34.658147 L11.6958438,38.4920128 L13.0125945,34.658147 Z M56.0780856,35.5782748 C59.7959698,37.1118211 61.2676322,38.9520767 61.2676322,41.942492 C61.2676322,45.5463259 58.3243073,47.9233227 54.2191436,47.9233227 C49.8041562,47.9233227 46.6284635,45.3929712 46.086272,40.5623003 L49.959068,40.5623003 C50.4238035,43.3226837 51.8180101,44.7795527 54.2191436,44.7795527 C56.1555416,44.7795527 57.2399244,43.7827476 57.2399244,42.0958466 C57.2399244,40.5623003 56.5428212,39.4888179 53.9867758,38.4920128 L51.8180101,37.6485623 C47.9452141,36.115016 46.5510076,34.1980831 46.5510076,31.6677316 C46.5510076,28.370607 49.4168766,25.9169329 53.5994962,25.9169329 C57.7821159,25.9169329 60.3381612,28.370607 60.9578086,32.6645367 L57.0850126,32.6645367 C56.7751889,30.4408946 55.690806,29.0607029 53.4445844,29.0607029 C51.6630982,29.0607029 50.4238035,30.057508 50.4238035,31.5910543 C50.4238035,32.7412141 51.0434509,33.5079872 53.2896725,34.428115 L56.0780856,35.5782748 Z M34.0806045,13.1884984 C33.615869,19.399361 30.6725441,22.0063898 26.0251889,22.0063898 C21.2229219,22.0063898 18.3570529,18.7859425 18.3570529,11.2715655 L18.3570529,10.8115016 C18.3570529,3.2971246 21.145466,0.0766773163 26.0251889,0.0766773163 C30.6725441,0.0766773163 33.615869,2.76038339 34.0806045,8.89456869 L28.7361461,8.89456869 C28.5812343,5.75079872 27.8066751,4.67731629 26.2575567,4.67731629 C24.7858942,4.67731629 23.9338791,5.59744409 23.9338791,8.12779553 L23.9338791,13.9552716 C23.9338791,16.485623 24.7084383,17.4057508 26.2575567,17.4057508 C27.7292191,17.4057508 28.5037783,16.4089457 28.7361461,13.1884984 L34.0806045,13.1884984 Z M92.0950882,1.91693291 C88.8419395,1.91693291 86.9055416,4.52396166 86.9055416,8.74121406 L86.9055416,12.1916933 C86.9055416,17.3290735 88.5321159,20.0894569 92.0950882,20.0894569 C94.8835013,20.0894569 96.6649874,18.4025559 97.1297229,14.4153355 L99.2210327,14.4153355 C98.7562972,19.0926518 96.2777078,21.9297125 92.0176322,21.9297125 C87.2928212,21.9297125 84.6593199,18.4025559 84.6593199,12.3450479 L84.6593199,9.58466454 C84.6593199,3.68051118 87.2153652,0 92.0176322,0 C96.122796,0 98.7562972,2.8370607 99.2210327,7.514377 L97.1297229,7.514377 C96.6649874,3.68051118 94.8835013,1.91693291 92.0950882,1.91693291 Z M8.28778338,17.4057508 C9.13979849,17.4057508 10.0692695,16.9456869 9.91435768,15.7955272 C9.91435768,14.798722 9.29471033,14.1086262 5.96410579,12.7284345 C1.93639798,11.0415335 0.232367758,8.97124601 0.232367758,6.28753994 C0.232367758,2.37699681 3.71788413,7.10542736e-14 7.74559194,7.10542736e-14 C11.9282116,7.10542736e-14 14.9489924,2.91373802 15.4911839,7.20766773 L9.9918136,7.20766773 C9.75944584,5.90415335 9.21725441,4.60063898 7.51322418,4.60063898 C6.73866499,4.60063898 5.80919395,5.13738019 5.80919395,6.1341853 C5.80919395,7.0543131 6.50629723,7.74440895 8.82997481,8.74121406 C13.8646096,10.8115016 15.6460957,12.4984026 15.6460957,15.6421725 C15.6460957,19.4760383 12.3929471,22.0063898 8.36523929,22.0063898 C3.87279597,22.0063898 0.232367758,18.9392971 0,14.0319489 L5.49937028,14.0319489 C5.5768262,15.6421725 6.35138539,17.4057508 8.28778338,17.4057508 Z M60.8803526,18.5559105 L60.8803526,21.6996805 L47.8677582,21.6996805 L47.8677582,0.306709265 L60.8803526,0.306709265 L60.8803526,3.52715655 L51.4307305,3.52715655 L51.4307305,9.27795527 L60.3381612,9.27795527 L60.3381612,12.4217252 L51.4307305,12.4217252 L51.4307305,18.5559105 L60.8803526,18.5559105 Z M38.2632242,0.306709265 L42.6007557,0.306709265 L42.6007557,21.6996805 L38.2632242,21.6996805 L38.2632242,0.306709265 Z M116.338791,20.3961661 L116.338791,21.6996805 L103.945844,21.6996805 L103.945844,0.306709265 L116.338791,0.306709265 L116.338791,1.68690096 L105.34005,1.68690096 L105.34005,10.1214058 L115.796599,10.1214058 L115.796599,11.4249201 L105.34005,11.4249201 L105.34005,20.3961661 L116.338791,20.3961661 Z M121.141058,26.3003195 L123,26.3003195 L123,47.6932907 L121.605793,47.6932907 L121.605793,29.1373802 L114.324937,47.6932907 L112.543451,47.6932907 L105.34005,29.1373802 L105.34005,47.6932907 L103.945844,47.6932907 L103.945844,26.3003195 L105.804786,26.3003195 L113.472922,46.0063898 L121.141058,26.3003195 Z M96.7424433,39.8722045 L96.7424433,26.3003195 L98.8337531,26.3003195 L98.8337531,39.028754 C98.8337531,45.3929712 95.8904282,48 91.1656171,48 C86.440806,48 83.4974811,45.3929712 83.4974811,39.028754 L83.4974811,26.3003195 L85.5887909,26.3003195 L85.5887909,39.8722045 C85.5887909,44.1661342 87.7575567,46.0830671 91.1656171,46.0830671 C94.5736776,46.0830671 96.7424433,44.1661342 96.7424433,39.8722045 Z M65.4502519,47.6932907 L65.4502519,26.3003195 L78.8501259,26.3003195 L78.8501259,28.9073482 L68.3161209,28.9073482 L68.3161209,35.4249201 L78.2304786,35.4249201 L78.2304786,38.0319489 L68.3161209,38.0319489 L68.3161209,45.086262 L78.8501259,45.086262 L78.8501259,47.6932907 L65.4502519,47.6932907 Z M77.3784635,16.5623003 L77.3784635,0.306709265 L80.3217884,0.306709265 L80.3217884,21.6996805 L77.2235516,21.6996805 L69.3230479,7.74440895 L68.3161209,5.36741214 L68.3161209,21.6996805 L65.4502519,21.6996805 L65.4502519,0.306709265 L68.5484887,0.306709265 L76.3715365,14.3386581 L77.3784635,16.5623003 Z"
              id="Shape" fill="#FFFFFF" fill-rule="nonzero"></path>
    </g>
</svg>
