<svg width="83px" height="51px" viewBox="0 0 83 51" version="1.1" xmlns="http://www.w3.org/2000/svg"
     xmlns:xlink="http://www.w3.org/1999/xlink" class="image" alt="Studio Lambert">
    <g id="Logos/Studio-Lambert" stroke="none" stroke-width="1" fill="none" fill-rule="evenodd">
        <path d="M16.4370447,8.09630495 C16.5998629,8.31934051 16.551047,8.63213674 16.3280115,8.79495489 C16.1049759,8.95777304 15.7921797,8.90895718 15.6293615,8.68592162 C14.8752386,7.65289043 13.876187,7.14770508 12.5854492,7.14770508 C10.9455135,7.14770508 9.29223633,8.38450155 9.29223633,10.5134277 C9.29223633,12.4735819 10.3898822,13.7100496 12.6840355,14.2961925 C15.8064531,14.9241756 17.4421387,16.6033083 17.4421387,19.2587891 C17.4421387,22.2764446 14.8563032,24.3835449 12.8922119,24.3835449 C10.4019234,24.3835449 7.97290039,22.6737899 7.97290039,21.2868652 C7.97290039,21.0107229 8.19675802,20.7868652 8.47290039,20.7868652 C8.74904277,20.7868652 8.97290039,21.0107229 8.97290039,21.2868652 C8.97290039,21.5123941 9.36778359,22.040265 9.99188282,22.4795596 C10.7917492,23.0425742 11.8067496,23.3835449 12.8922119,23.3835449 C14.3439816,23.3835449 16.4421387,21.6738354 16.4421387,19.2587891 C16.4421387,17.1193479 15.1733646,15.8168726 12.461813,15.27085 C9.72339901,14.5720142 8.29223633,12.9598491 8.29223633,10.5134277 C8.29223633,7.75879916 10.4458526,6.14770508 12.5854492,6.14770508 C14.1947765,6.14770508 15.4942275,6.80479186 16.4370447,8.09630495 Z M19.4833944,7.29908928 C19.4953225,7.32702202 19.4729171,7.32580566 19.4030762,7.32580566 L16.9421387,7.32580566 C16.6659963,7.32580566 16.4421387,7.10194804 16.4421387,6.82580566 C16.4421387,6.54966329 16.6659963,6.32580566 16.9421387,6.32580566 L19.4030762,6.32580566 C19.8003568,6.32580566 20.1074935,6.42595633 20.2911643,6.70348509 C20.4318167,6.91601248 20.4960938,7.17373236 20.4960938,7.46813965 L20.4934098,22.9963586 C20.5249055,23.2991067 20.6181281,23.3835449 20.918457,23.3835449 C21.1992808,23.3835449 21.2539063,23.3289195 21.2539063,23.0480957 L21.2539063,7.46813965 C21.2539063,7.18481942 21.3750144,6.91634969 21.5910352,6.6584045 C21.7837724,6.42826183 22.06513,6.32580566 22.3962402,6.32580566 L25.0427246,6.32580566 C25.318867,6.32580566 25.5427246,6.54966329 25.5427246,6.82580566 C25.5427246,7.10194804 25.318867,7.32580566 25.0427246,7.32580566 L22.3962402,7.32580566 C22.3394869,7.32580566 22.3366492,7.32577043 22.354582,7.30418441 C22.2791128,7.39496694 22.2539063,7.45106284 22.2539063,7.46813965 L22.2539063,23.0480957 C22.2539063,23.8812042 21.7515656,24.3835449 20.918457,24.3835449 C20.1048537,24.3835449 19.5831674,23.911017 19.4960938,23.0480957 L19.4960938,7.46813965 C19.4960938,7.3809203 19.4857292,7.3202847 19.4707691,7.28217724 L19.4833944,7.29908928 Z M26.2197266,6.82580566 C26.2197266,6.54966329 26.4435842,6.32580566 26.7197266,6.32580566 C26.9958689,6.32580566 27.2197266,6.54966329 27.2197266,6.82580566 L27.2197266,16.9754639 C27.2197266,21.3284576 28.8147606,23.3835449 32.0813599,23.3835449 C35.3479591,23.3835449 36.9429932,21.3284576 36.9429932,16.9754639 L36.9429932,6.82580566 C36.9429932,6.54966329 37.1668508,6.32580566 37.4429932,6.32580566 C37.7191355,6.32580566 37.9429932,6.54966329 37.9429932,6.82580566 L37.9429932,16.9754639 C37.9429932,21.8332449 35.963605,24.3835449 32.0813599,24.3835449 C28.1991147,24.3835449 26.2197266,21.8332449 26.2197266,16.9754639 L26.2197266,6.82580566 Z M39.0148926,6.82580566 C39.0148926,6.54966329 39.2387502,6.32580566 39.5148926,6.32580566 C39.791035,6.32580566 40.0148926,6.54966329 40.0148926,6.82580566 L40.0148925,23.2032802 C40.014991,23.3511496 40.0312309,23.4179223 40.0082905,23.3935966 C39.9777337,23.3611946 40.0482856,23.3800289 40.1948242,23.3835449 L42.0201562,23.3835449 C47.0456149,23.3835449 51.1391602,20.5208054 51.1391602,15.265625 C51.1391602,12.5208585 50.0249407,10.4486506 48.1315707,8.99633888 C46.7895429,7.96693484 45.0546983,7.32580566 44.1993408,7.32580566 L41.0691415,7.32580566 C40.7929991,7.32580566 40.5691415,7.10194804 40.5691415,6.82580566 C40.5691415,6.54966329 40.7929991,6.32580566 41.0691415,6.32580566 L44.1993408,6.32580566 C45.2848992,6.32580566 47.2303867,7.04478002 48.7401944,8.20287987 C50.8707881,9.83715431 52.1391602,12.1960527 52.1391602,15.265625 C52.1391602,21.1652823 47.5372382,24.3835449 42.0201562,24.3835449 C40.638278,24.3835449 40.638278,24.3835449 40.1832849,24.3834117 C39.7801388,24.3741052 39.4838288,24.2950033 39.280772,24.0796847 C39.0853316,23.8724423 39.0151458,23.5838634 39.0148926,23.2036133 L39.0148926,6.82580566 Z M52.8032227,6.82580566 C52.8032227,6.54966329 53.0270803,6.32580566 53.3032227,6.32580566 C53.579365,6.32580566 53.8032227,6.54966329 53.8032227,6.82580566 L53.8032227,23.8835449 C53.8032227,24.1596873 53.579365,24.3835449 53.3032227,24.3835449 C53.0270803,24.3835449 52.8032227,24.1596873 52.8032227,23.8835449 L52.8032227,6.82580566 Z M64.8,0.5 L81.0385431,0.5 C81.3728626,0.5 81.4940949,0.534809604 81.6163171,0.600174764 C81.7385394,0.665539924 81.8344601,0.761460639 81.8998252,0.883682861 C81.9651904,1.00590508 82,1.12713742 82,1.46145695 L82,49.5385431 C82,49.8728626 81.9651904,49.9940949 81.8998252,50.1163171 C81.8344601,50.2385394 81.7385394,50.3344601 81.6163171,50.3998252 C81.4940949,50.4651904 81.3728626,50.5 81.0385431,50.5 L0.96145695,50.5 C0.627137423,50.5 0.505905083,50.4651904 0.383682861,50.3998252 C0.261460639,50.3344601 0.165539924,50.2385394 0.100174764,50.1163171 C0.0348096042,49.9940949 4.09423339e-17,49.8728626 0,49.5385431 L5.17920154e-17,1.46145695 C1.08496815e-17,1.12713742 0.0348096042,1.00590508 0.100174764,0.883682861 C0.165539924,0.761460639 0.261460639,0.665539924 0.383682861,0.600174764 C0.505905083,0.534809604 0.627137423,0.5 0.96145695,0.5 L62.4,0.5 C62.8418278,0.5 63.2,0.8581722 63.2,1.3 L63.2,6.6 C63.2,6.87614237 62.9761424,7.1 62.7,7.1 C62.5,7.10560061 62.3333333,7.11582851 62.2,7.13068369 C58.4000842,7.75242749 55.5,11.0193526 55.5,15 C55.5,19.4238689 59.0818522,23.0098877 63.5,23.0098877 C67.9181478,23.0098877 71.5,19.4238689 71.5,15 C71.5,11.0894865 68.7012071,7.83365341 65,7.13068369 C64.8666667,7.1102279 64.7,7.1 64.5,7.1 C64.2238576,7.1 64,6.87614237 64,6.6 L64,1.3 C64,0.8581722 64.3581722,0.5 64.8,0.5 Z M65,1.5 L65,6.11468495 C69.2566584,6.82959359 72.5,10.5357116 72.5,15 C72.5,19.9758935 68.470693,24.0098877 63.5,24.0098877 C58.529307,24.0098877 54.5,19.9758935 54.5,15 C54.5,10.4660489 57.8453524,6.71411445 62.2,6.08341126 L62.2,1.5 L1,1.5 L1,49.5 L81,49.5 L81,1.5 L65,1.5 Z M4.78466797,43.140625 L9.63354492,43.140625 C9.9096873,43.140625 10.1335449,43.3644826 10.1335449,43.640625 C10.1335449,43.9167674 9.9096873,44.140625 9.63354492,44.140625 L4.70251844,44.1338303 C4.44909673,44.0916197 4.23629516,43.9947392 4.07808658,43.8285912 C3.9329379,43.6761586 3.84070502,43.4796525 3.7914142,43.2474323 L3.78051758,43.1436157 L3.78051757,26.6586914 C3.78051757,26.382549 4.00437519,26.1586914 4.28051757,26.1586914 C4.55665994,26.1586914 4.78051757,26.382549 4.78051757,26.6586914 L4.78051758,43.0842239 C4.78938926,43.1154126 4.79735008,43.1324433 4.80135429,43.1378689 C4.79728113,43.132047 4.80815197,43.1383925 4.78466797,43.140625 Z M12.1209039,43.7962868 C12.0349343,44.058706 11.7525093,44.2017466 11.4900901,44.115777 C11.2276709,44.0298073 11.0846303,43.7473824 11.1706,43.4849632 L16.7339545,26.5030296 C16.8838072,26.0456098 17.5300834,26.0433358 17.6831512,26.4996898 L21.4664764,37.7792308 L21.4924313,37.9376161 C21.4934134,38.7344011 21.0325062,39.2304688 20.2563477,39.2304688 C18.9724528,39.2304687 18.9724528,39.2304687 15.5157776,39.2302568 C15.1968091,39.2395471 15.1210937,39.3156826 15.1210937,39.6154785 C15.1210938,39.914194 15.1951496,39.9882498 15.5012207,39.9956055 L20.254193,39.9956101 C21.4283755,39.9905502 22.2028153,40.2911603 22.485072,40.9943499 C22.679578,41.4789252 22.9346299,42.3139402 23.2554254,43.5112211 C23.3268931,43.777955 23.1685987,44.0521216 22.9018648,44.1235894 C22.6351309,44.1950572 22.3609643,44.0367628 22.2894965,43.7700289 C21.978456,42.6091555 21.7325721,41.8041558 21.5570423,41.3668562 C21.4692631,41.1481708 21.0672299,40.9921158 20.2563477,40.9956055 L15.4894348,40.9954665 C14.6337892,40.9752918 14.1210938,40.4625964 14.1210937,39.6154785 C14.1210937,38.7694411 14.6321297,38.25557 15.5012207,38.2304688 L20.2563477,38.2304688 C20.4402624,38.2304688 20.4840777,38.2050364 20.4912544,38.016342 L17.2146974,28.2476709 L12.1209039,43.7962868 Z M25.2884521,43.640625 C25.2884521,43.9167674 25.0645945,44.140625 24.7884521,44.140625 C24.5123098,44.140625 24.2884521,43.9167674 24.2884521,43.640625 L24.2884521,26.6586914 C24.2884521,26.1890515 24.877349,25.978501 25.1751103,26.3416812 L31.9873047,34.6505299 L38.7994991,26.3416812 C39.0972604,25.978501 39.6861572,26.1890515 39.6861572,26.6586914 L39.6861572,43.640625 C39.6861572,43.9167674 39.4622996,44.140625 39.1861572,44.140625 C38.9100149,44.140625 38.6861572,43.9167674 38.6861572,43.640625 L38.6861572,28.0571605 L32.3739628,35.7561582 C32.1739252,36.0001445 31.8006842,36.0001445 31.6006466,35.7561582 L25.2884521,28.0571605 L25.2884521,43.640625 Z M42.1003418,43.140625 L46.5784912,43.140625 C48.4758243,43.140625 49.9161377,42.0821641 49.9161377,39.9898682 C49.9161377,37.7489833 48.8331981,36.5783076 46.5784912,36.3413086 L44.2800293,36.3413086 C43.1997662,36.3413086 42.5540771,36.0168011 42.5540771,35.0710449 C42.5540771,34.122374 43.183038,33.8 44.2800293,33.8 L46.9703369,33.8 C47.3984094,33.8 47.9761677,33.6565444 48.4541258,33.3296541 C49.1634351,32.8445355 49.5805664,32.0213165 49.5805664,30.7260742 C49.5805664,28.4053646 48.144371,27.3392334 46.5784912,27.3392334 L43.0540771,27.3392334 C42.7779348,27.3392334 42.5540771,27.1153758 42.5540771,26.8392334 C42.5540771,26.563091 42.7779348,26.3392334 43.0540771,26.3392334 L46.5784912,26.3392334 C48.6430206,26.3392334 50.5805664,27.7775321 50.5805664,30.7260742 C50.5805664,32.3455099 50.0057205,33.4799825 49.0186525,34.1550688 C48.3555917,34.6085566 47.5845658,34.8 46.9703369,34.8 L44.2800293,34.8 C43.6633393,34.8 43.5540771,34.8560023 43.5540771,35.0710449 C43.5540771,35.277555 43.680931,35.3413086 44.2800293,35.3413086 C45.2323201,35.3413086 45.2323201,35.3413086 46.6301723,35.3439867 C49.4406463,35.6360479 50.9161377,37.2310785 50.9161377,39.9898682 C50.9161377,42.7127859 48.9731883,44.140625 46.5784912,44.140625 C44.1968791,44.140625 44.1968791,44.140625 42.0869036,44.1404444 C41.641921,44.1284805 41.4096141,44.0879165 41.226237,43.8985069 C41.0504951,43.7169839 41.0101072,43.4889773 41,43.0682388 L40.999951,26.6586929 C40.9999502,26.3825505 41.2238071,26.1586922 41.4999495,26.1586914 C41.7760919,26.1586906 41.9999502,26.3825475 41.999951,26.6586899 L41.9998515,43.0560532 C42.0005617,43.0851898 42.0019388,43.1124867 42.0028185,43.1364561 C42.0333094,43.1382368 42.0659977,43.1396456 42.1003418,43.140625 Z M58.15,26.1586914 C58.4261424,26.1586914 58.65,26.382549 58.65,26.6586914 C58.65,26.9348338 58.4261424,27.1586914 58.15,27.1586914 L52.6482616,27.1537824 C52.4798816,27.1775527 52.3874973,27.2075293 52.4217004,27.1715267 C52.469933,27.1207566 52.4589546,27.1746507 52.4611816,27.3083496 L52.461148,33.6250636 C52.4628131,33.7686953 52.4784103,33.8489055 52.4178487,33.7865609 C52.348628,33.7153023 52.4320266,33.7306467 52.5783691,33.7304687 L57.0078125,33.7304687 C57.8363651,33.7304687 58.3538818,34.1431083 58.3538818,34.9659424 C58.3538818,35.7874244 57.8238717,36.3049316 57.0078125,36.3049316 C54.9362386,36.3049316 54.9362386,36.3049316 52.6013112,36.304405 C52.4396255,36.3118317 52.3469268,36.3320148 52.3950443,36.2883893 C52.4668252,36.2233095 52.4595296,36.2565439 52.4611816,36.364502 L52.4610308,43.0765864 C52.4658707,43.2735791 52.4887062,43.4115942 52.4321204,43.3482383 C52.3662638,43.2745023 52.4592466,43.2967532 52.5783691,43.305542 L58.25,43.305542 C58.5261424,43.305542 58.75,43.5293996 58.75,43.805542 C58.75,44.0816844 58.5261424,44.305542 58.25,44.305542 L52.5459681,44.3044911 C52.1197088,44.2768104 51.8665816,44.2162366 51.6862878,44.0143716 C51.5152649,43.8228867 51.472752,43.5659433 51.4611816,43.0888672 L51.4612447,36.3724446 C51.4553649,36.0023495 51.5134177,35.7378951 51.7233639,35.5475482 C51.9096468,35.3786557 52.1630581,35.3234807 52.5783691,35.3049316 L57.0078125,35.3049316 C57.2768594,35.3049316 57.3538818,35.2297262 57.3538818,34.9659424 C57.3538818,34.7514963 57.3275099,34.7304687 57.0078125,34.7304687 C54.9362386,34.7304687 54.9362386,34.7304687 52.5789782,34.7304684 C52.1568812,34.7309826 51.8941699,34.6826469 51.7005595,34.4833365 C51.5156082,34.2929402 51.4658572,34.0370909 51.4611816,33.6308594 L51.4612557,27.3169538 C51.4548882,26.9469884 51.5092581,26.6800817 51.6967078,26.4827701 C51.870128,26.3002262 52.1238537,26.2178981 52.5783691,26.1586914 L58.15,26.1586914 Z M62.2550049,36.4958496 C62.1978595,36.4958496 62.2315864,36.4554392 62.2357178,36.618042 L62.2357178,43.0234375 C62.2357178,43.8471239 61.6689737,44.305542 60.7687988,44.305542 C59.8685453,44.305542 59.3018604,43.8469981 59.3022461,43.0234375 L59.302246,26.6586914 C59.302246,26.382549 59.5261036,26.1586914 59.802246,26.1586914 C60.0783883,26.1586914 60.302246,26.382549 60.302246,26.6586914 L60.302246,43.0236716 C60.3021435,43.2426828 60.3798271,43.305542 60.7687988,43.305542 C61.1578493,43.305542 61.2357178,43.2425571 61.2357178,43.0234375 L61.2358931,36.6312804 C61.2178765,35.9510549 61.5977948,35.4958496 62.2550049,35.4958496 L64.2567107,35.4958496 C64.5510366,35.4958496 64.8215921,35.6574636 64.961114,35.9166187 L68.8979223,43.2324047 C68.9808421,43.4210603 69.031026,43.463501 69.0667725,43.463501 C69.1328285,43.463501 69.3308268,43.3766121 69.4770807,43.2578496 C69.5718139,43.1809235 69.5791734,43.166143 69.6217455,43.2499293 C69.4806999,42.9723369 68.4384311,40.7890026 66.49085,36.6894846 C66.2167491,36.1964483 66.4451469,35.7143733 66.9735716,35.3145352 C66.9883627,35.3033433 67.3630052,35.031959 67.507454,34.9210717 C67.7692282,34.7201189 68.0061166,34.5178224 68.2287344,34.2978729 C69.036402,33.4998857 69.5,32.6239249 69.5,31.6383057 C69.5,29.2114963 67.8843629,27.3721924 65.1177979,27.3721924 L61.4750977,27.3721924 C61.1989553,27.3721924 60.9750977,27.1483348 60.9750977,26.8721924 C60.9750977,26.59605 61.1989553,26.3721924 61.4750977,26.3721924 L65.1177979,26.3721924 C68.4675769,26.3721924 70.5,28.6859817 70.5,31.6383057 C70.5,32.930024 69.912548,34.0400049 68.9315653,35.0092299 C68.6766018,35.2611375 68.4089465,35.489708 68.1163804,35.7142985 C67.9580324,35.8358555 67.5795946,36.1099892 67.5769655,36.1119785 C67.3967313,36.2483546 67.3935211,36.2551304 67.3794341,36.2318761 C69.3279263,40.3309518 70.3787565,42.5322204 70.5132643,42.7969457 C70.9190823,43.5956378 69.8503235,44.463501 69.0667725,44.463501 C68.5776166,44.463501 68.2100758,44.1526702 67.9999335,43.6706131 L64.1372425,36.4958496 L62.2550049,36.4958496 Z M69.8304443,27.4014893 C69.554302,27.4014893 69.3304443,27.1776316 69.3304443,26.9014893 C69.3304443,26.6253469 69.554302,26.4014893 69.8304443,26.4014893 L72.4087894,26.4026824 C73.0384122,26.4462578 73.4281006,26.8572472 73.4281006,27.4855957 L73.4281006,31.6333313 C73.4281006,36.1085052 73.4281006,36.1085052 73.4271955,42.9549149 C73.4440145,43.2340676 73.5226342,43.305542 73.8306885,43.305542 C74.1514677,43.305542 74.2576716,43.2149337 74.2924805,42.9849854 L74.2935332,27.5180247 C74.2499715,26.8477908 74.6406836,26.4014893 75.303833,26.4014893 L77.8658447,26.4014893 C78.1419871,26.4014893 78.3658447,26.6253469 78.3658447,26.9014893 C78.3658447,27.1776316 78.1419871,27.4014893 77.8658447,27.4014893 L75.303833,27.4014893 C75.2345606,27.4014893 75.2843709,27.344592 75.2924805,27.4855957 L75.2881547,43.0506132 C75.1824326,43.8491125 74.6474418,44.305542 73.8306885,44.305542 C73.0012102,44.305542 72.4781047,43.8299787 72.4281006,42.9849854 L72.4281006,27.4855957 C72.4281006,27.3862424 72.4485669,27.4078275 72.3742676,27.4014893 L69.8304443,27.4014893 Z"
              id="Combined-Shape" fill="#FFFFFF" fill-rule="nonzero"></path>
    </g>
</svg>
