<?xml version="1.0" encoding="UTF-8"?>
<svg width="194px" height="194px" viewBox="0 0 194 194" version="1.1" xmlns="http://www.w3.org/2000/svg" xmlns:xlink="http://www.w3.org/1999/xlink">
    <!-- Generator: Sketch 55.2 (78181) - https://sketchapp.com -->
    <title>Group</title>
    <desc>Created with Sketch.</desc>
    <g id="Page-1" stroke="none" stroke-width="1" fill="none" fill-rule="evenodd">
        <g id="WWF-(1)">
            <g id="Group" transform="translate(0.260000, 0.677000)">
                <polygon id="Fill-1" fill="none" points="0 192.756 192.756 192.756 192.756 0 0 0"></polygon>
                <path d="M140.908,14.831 C147.015,14.831 153.885,21.396 153.885,27.961 C153.885,31.93 148.694,38.954 142.74,38.954 C138.159,38.954 140.602,32.694 132.052,30.557 C130.22,29.793 129.457,28.572 129.457,26.892 C129.457,20.022 136.48,14.831 140.908,14.831" id="Fill-2" fill="#FFFFFF"></path>
                <path d="M84.943,63.558 C84.943,57.756 90.287,51.038 96.241,51.038 C99.6,51.038 103.57,54.092 103.57,60.657 C103.57,61.267 96.546,72.871 91.813,72.871 C87.539,72.871 84.943,69.054 84.943,63.558" id="Fill-3" fill="#FFFFFF"></path>
                <path d="M117.932,64.038 L118.085,63.58 C119.611,58.083 122.818,55.03 126.329,55.03 C130.91,55.03 135.948,60.832 135.948,68.008 C135.948,73.657 132.437,77.779 128.162,77.779 C124.955,77.779 123.429,75.794 122.054,71.977 C120.528,67.855 120.375,67.55 117.932,64.038" id="Fill-4" fill="#FFFFFF"></path>
                <path d="M99.821,82.295 C99.821,80.463 101.195,79.547 103.333,79.547 C113.715,79.547 116.005,82.143 116.005,83.822 C116.005,85.349 115.394,85.502 111.882,86.112 C108.218,86.723 108.676,88.708 107.303,88.708 C105.928,88.708 106.844,86.417 103.638,85.196 C100.737,84.127 99.821,83.517 99.821,82.295" id="Fill-5" fill="#FFFFFF"></path>
                <path d="M149.836,54.918 C149.836,76.751 139.302,86.828 123.118,86.828 C116.858,86.828 120.064,92.782 113.652,92.782 C111.056,92.782 109.529,90.034 106.476,90.034 C104.796,90.034 102.964,90.95 100.979,90.95 C94.567,90.95 95.941,83.927 93.804,83.011 C84.796,79.346 84.643,79.346 82.964,78.278 C76.246,73.697 73.345,67.438 73.345,57.972 C73.345,48.505 77.009,36.292 82.964,30.948 C84.796,32.169 85.864,32.78 86.933,32.78 C89.223,32.78 89.987,29.574 95.178,27.741 C101.59,25.451 101.59,25.451 101.59,22.093 C101.59,13.237 96.399,8.504 90.903,8.504 C83.727,8.504 76.704,14.459 76.704,20.26 C76.704,23.161 78.383,26.062 80.674,28.505 C68.154,36.139 60.825,48.047 60.825,62.552 C60.825,67.438 61.589,69.117 61.589,72.629 C61.589,76.751 60.062,79.194 60.062,83.164 C60.062,85.148 60.858,89.102 62.2,91.408 C50.291,82.553 43.725,71.102 43.725,57.819 C43.725,44.689 49.985,34.154 60.825,26.52 L61.589,25.909 C46.474,32.169 36.397,47.742 36.397,67.438 C36.397,77.667 39.45,83.774 39.45,86.828 C39.45,88.049 38.992,90.797 38.992,94.309 C38.992,100.569 43.878,112.172 48.153,117.668 C51.512,121.944 56.703,124.386 62.81,124.386 C67.543,124.386 70.749,122.859 70.749,120.264 C70.749,118.432 68.307,114.157 68.154,104.539 L76.551,120.722 C84.49,135.837 90.597,140.57 103.881,140.57 C109.529,140.57 113.041,138.891 113.041,135.99 C113.041,133.7 108.461,128.051 108.461,112.172 C108.461,104.996 110.14,101.179 114.11,101.179 C117.011,101.179 118.385,103.622 118.385,109.118 C118.385,117.363 116.4,126.371 116.4,128.967 C116.4,132.325 118.843,134.31 123.728,134.31 C132.125,134.31 139.76,129.119 143.882,121.485 C149.989,110.187 154.264,88.202 154.264,77.362 C154.264,68.506 152.127,59.346 149.836,54.918 Z" id="Path" fill="#FFFFFF"></path>
                <path d="M107.602,97.465 C103.938,97.465 100.427,95.174 99.816,92.426 C105.007,93.648 109.129,94.258 113.862,94.258 C112.64,96.243 110.656,97.465 107.602,97.465 L107.602,97.465 Z" id="Path" fill="#FFFFFF"></path>
                <path d="M152.26,128.256 C149.985,128.256 148.139,130.045 148.139,132.23 C148.139,134.46 149.985,136.249 152.26,136.249 C154.524,136.249 156.358,134.46 156.358,132.23 C156.358,130.045 154.524,128.256 152.26,128.256 Z" id="Path" fill="#FFFFFF"></path>
                <path d="M152.26,135.468 C150.403,135.468 148.92,134.052 148.92,132.23 C148.92,130.464 150.403,129.037 152.26,129.037 C154.094,129.037 155.577,130.464 155.577,132.23 C155.577,134.052 154.094,135.468 152.26,135.468 L152.26,135.468 Z" id="Path" fill="#FFFFFF"></path>
                <path d="M154.367,131.188 C154.367,130.815 154.197,130.418 153.858,130.226 C153.507,130.033 153.122,130.011 152.737,130.011 L150.733,130.011 L150.733,134.483 L151.413,134.483 L151.413,132.422 L152.216,132.422 L153.53,134.483 L154.311,134.483 L152.918,132.422 C153.733,132.399 154.367,132.071 154.367,131.188 Z" id="Path" fill="#FFFFFF"></path>
                <path d="M152.16,131.867 L151.413,131.867 L151.413,130.52 L152.601,130.52 C153.179,130.52 153.688,130.599 153.688,131.177 C153.688,131.981 152.805,131.867 152.16,131.867 L152.16,131.867 Z" id="Path" fill="#FFFFFF"></path>
                <path d="M129.305,182.877 C132.239,182.877 133.122,182.114 133.122,179.824 L133.122,158.143 C133.122,156.006 131.901,155.395 129.153,155.395 L129.153,154.327 L154.65,154.327 L154.65,162.419 L153.581,162.419 C153.581,158.143 150.985,156.312 146.558,156.312 L142.283,156.312 L142.283,167.915 L144.267,167.915 C147.627,167.915 148.39,165.777 148.543,162.113 L149.611,162.113 L149.611,175.549 L148.543,175.549 C148.543,171.884 147.168,169.747 144.267,169.747 L142.283,169.747 L142.283,179.671 C142.283,182.266 143.046,182.877 146.1,182.877 L146.1,183.946 L129.305,183.946 L129.305,182.877" id="Fill-9" fill="#FFFFFF"></path>
                <path d="M59.118,164.251 L51.938,184.252 L49.495,184.252 L41.861,161.656 C39.876,155.396 39.208,155.417 37.281,155.396 L37.281,154.327 L51.632,154.327 L51.632,155.396 C49.207,155.435 49.167,157.266 49.648,158.908 L54.228,172.802 L58.202,161.656 C56.217,155.396 55.548,155.417 53.622,155.396 L53.622,154.327 L67.974,154.327 L67.974,155.396 C65.548,155.435 65.508,157.266 65.988,158.908 L70.569,172.802 L75.76,158.45 C76.303,156.371 75.76,155.549 74.08,155.396 L74.08,154.327 L81.256,154.327 L81.256,155.396 C79.424,155.396 78.355,156.159 77.287,159.213 L68.279,184.252 L65.836,184.252 L59.118,164.251" id="Fill-10" fill="#FFFFFF"></path>
                <path d="M105.391,164.251 L98.21,184.252 L95.767,184.252 L88.134,161.656 C86.149,155.396 85.48,155.417 83.553,155.396 L83.553,154.327 L97.905,154.327 L97.905,155.396 C95.48,155.435 95.44,157.266 95.92,158.908 L100.5,172.802 L104.474,161.656 C102.49,155.396 101.821,155.417 99.894,155.396 L99.894,154.327 L114.246,154.327 L114.246,155.396 C111.821,155.435 111.78,157.266 112.261,158.908 L116.841,172.802 L122.032,158.45 C122.575,156.371 122.032,155.549 120.353,155.396 L120.353,154.327 L127.529,154.327 L127.529,155.396 C125.697,155.396 124.628,156.159 123.559,159.213 L114.551,184.252 L112.108,184.252 L105.391,164.251" id="Fill-11" fill="#FFFFFF"></path>
            </g>
        </g>
    </g>
</svg>
